<svg width="100" height="100" viewBox="0 0 100 100" fill="none" xmlns="http://www.w3.org/2000/svg">
<rect width="100" height="100" fill="white"/>
<path d="M31.292 63.1752L13.1018 50.6214C12.2622 50.0419 11.1147 50.229 10.5026 51.0452L7.52955 55.0092C6.70415 56.1098 7.28556 57.6954 8.62672 58.0016L31.292 63.1752ZM31.292 63.1752L9.54274 67.9328C7.83644 68.3061 6.57293 66.3729 7.5996 64.9599L27.1799 38.0107C28.2459 36.5435 30.5654 37.2614 30.6162 39.0743L31.292 63.1752Z" stroke="black" stroke-opacity="0.85" stroke-width="1.66423"/>
<path d="M29.6277 60.6788L11.4376 48.1251C10.5979 47.5456 9.45051 47.7327 8.83839 48.5488L5.86533 52.5129C5.03994 53.6134 5.62135 55.1991 6.96251 55.5052L29.6277 60.6788ZM29.6277 60.6788L7.87853 65.4365C6.17223 65.8097 4.90871 63.8766 5.93539 62.4635L25.5156 35.5144C26.5817 34.0472 28.9012 34.7651 28.952 36.5779L29.6277 60.6788Z" stroke="#FF4F5A" stroke-width="1.66423"/>
<path d="M34.7452 61.38L34.137 62.1098L34.143 62.1147L34.7452 61.38ZM34.7452 54.3234L35.3534 55.0532L35.3545 55.0522L34.7452 54.3234ZM39.955 53.8446L39.245 54.4757L39.2821 54.5175L39.3238 54.5546L39.955 53.8446ZM36.8314 56.0904L37.4249 56.8322L37.4395 56.8205L37.4536 56.8083L36.8314 56.0904ZM36.8314 59.6472L36.2379 60.389L36.2535 60.4015L36.2696 60.4133L36.8314 59.6472ZM39.955 59.8752L39.245 60.5063L39.2821 60.5481L39.3238 60.5852L39.955 59.8752ZM39.955 61.8588L40.6267 62.5305L40.6267 62.5305L39.955 61.8588ZM39.6472 61H36.8656V62.9H39.6472V61ZM36.8656 61C36.0145 61 35.5668 60.8251 35.3474 60.6453L34.143 62.1147C34.8508 62.6949 35.8167 62.9 36.8656 62.9V61ZM35.3534 60.6502C35.1803 60.506 35.0112 60.2324 35.0112 59.6244H33.1112C33.1112 60.5972 33.3981 61.494 34.137 62.1098L35.3534 60.6502ZM35.0112 59.6244V56.079H33.1112V59.6244H35.0112ZM35.0112 56.079C35.0112 55.471 35.1803 55.1974 35.3534 55.0532L34.137 53.5936C33.3981 54.2094 33.1112 55.1062 33.1112 56.079H35.0112ZM35.3545 55.0522C35.5733 54.8693 36.0179 54.692 36.8656 54.692V52.792C35.8133 52.792 34.8443 53.0023 34.1358 53.5946L35.3545 55.0522ZM36.8656 54.692H39.6472V52.792H36.8656V54.692ZM39.6472 54.692C39.6464 54.692 39.6358 54.692 39.6174 54.6894C39.599 54.6869 39.5694 54.6813 39.532 54.6689C39.4543 54.643 39.3437 54.5868 39.245 54.4757L40.665 53.2135C40.3419 52.8499 39.9083 52.792 39.6472 52.792V54.692ZM39.3238 54.5546C39.2128 54.4559 39.1566 54.3453 39.1307 54.2676C39.1182 54.2302 39.1127 54.2006 39.1102 54.1822C39.1076 54.1638 39.1076 54.1532 39.1076 54.1524H41.0076C41.0076 53.8913 40.9497 53.4577 40.5861 53.1346L39.3238 54.5546ZM39.1076 54.1524V55.5318H41.0076V54.1524H39.1076ZM39.1076 55.5318C39.1076 55.5308 39.1076 55.5212 39.1099 55.5046C39.1122 55.488 39.117 55.4619 39.1275 55.4292C39.1494 55.3611 39.1952 55.2672 39.2832 55.1792L40.6267 56.5227C40.9446 56.2049 41.0076 55.8052 41.0076 55.5318H39.1076ZM39.2832 55.1792C39.3889 55.0735 39.4986 55.0275 39.5626 55.0085C39.6234 54.9905 39.6577 54.9922 39.6472 54.9922V56.8922C39.8822 56.8922 40.2993 56.8502 40.6267 56.5227L39.2832 55.1792ZM39.6472 54.9922H37.3558V56.8922H39.6472V54.9922ZM37.3558 54.9922C37.0139 54.9922 36.5701 55.0597 36.2092 55.3725L37.4536 56.8083C37.3859 56.867 37.3262 56.8878 37.3064 56.8934C37.2891 56.8983 37.301 56.8922 37.3558 56.8922V54.9922ZM36.2379 55.3486C35.8341 55.6716 35.7104 56.1277 35.7104 56.5122H37.6104C37.6104 56.5121 37.6104 56.5123 37.6104 56.5122C37.6104 56.5121 37.6104 56.5123 37.6104 56.5122C37.6104 56.5122 37.6104 56.5122 37.6104 56.5122C37.6104 56.5122 37.6104 56.5123 37.6104 56.5123C37.6104 56.5124 37.6104 56.5125 37.6104 56.5126C37.6104 56.5129 37.6104 56.5134 37.6103 56.5139C37.6103 56.5151 37.6102 56.5169 37.61 56.5192C37.6097 56.5239 37.6089 56.531 37.6073 56.5404C37.604 56.5591 37.5974 56.5871 37.5835 56.6212C37.5534 56.6955 37.5 56.7721 37.4249 56.8322L36.2379 55.3486ZM35.7104 56.5122V59.2254H37.6104V56.5122H35.7104ZM35.7104 59.2254C35.7104 59.6099 35.8341 60.066 36.2379 60.389L37.4249 58.9054C37.5 58.9655 37.5534 59.0421 37.5835 59.1164C37.5974 59.1505 37.604 59.1785 37.6073 59.1972C37.6089 59.2066 37.6097 59.2137 37.61 59.2184C37.6102 59.2207 37.6103 59.2225 37.6103 59.2236C37.6104 59.2242 37.6104 59.2247 37.6104 59.225C37.6104 59.2251 37.6104 59.2252 37.6104 59.2253C37.6104 59.2253 37.6104 59.2254 37.6104 59.2254C37.6104 59.2254 37.6104 59.2254 37.6104 59.2254C37.6104 59.2253 37.6104 59.2255 37.6104 59.2254C37.6104 59.2253 37.6104 59.2255 37.6104 59.2254H35.7104ZM36.2696 60.4133C36.6233 60.6726 37.0404 60.7226 37.3558 60.7226V58.8226C37.3246 58.8226 37.302 58.8212 37.2868 58.8196C37.2714 58.8181 37.2661 58.8166 37.2689 58.8173C37.2725 58.8181 37.3246 58.8308 37.3932 58.8811L36.2696 60.4133ZM37.3558 60.7226H39.6472V58.8226H37.3558V60.7226ZM39.6472 60.7226C39.6464 60.7226 39.6358 60.7226 39.6174 60.72C39.599 60.7175 39.5694 60.7119 39.532 60.6995C39.4543 60.6736 39.3437 60.6174 39.245 60.5063L40.665 59.2441C40.3419 58.8805 39.9083 58.8226 39.6472 58.8226V60.7226ZM39.3238 60.5852C39.2128 60.4865 39.1566 60.3759 39.1307 60.2982C39.1182 60.2608 39.1127 60.2312 39.1102 60.2128C39.1076 60.1944 39.1076 60.1838 39.1076 60.183H41.0076C41.0076 59.9219 40.9497 59.4883 40.5861 59.1652L39.3238 60.5852ZM39.1076 60.183V61.5396H41.0076V60.183H39.1076ZM39.1076 61.5396C39.1076 61.5386 39.1076 61.529 39.1099 61.5124C39.1122 61.4958 39.117 61.4697 39.1275 61.437C39.1494 61.3689 39.1952 61.275 39.2832 61.187L40.6267 62.5305C40.9446 62.2127 41.0076 61.813 41.0076 61.5396H39.1076ZM39.2832 61.187C39.3889 61.0813 39.4986 61.0353 39.5626 61.0163C39.6234 60.9983 39.6577 61 39.6472 61V62.9C39.8822 62.9 40.2993 62.858 40.6267 62.5305L39.2832 61.187ZM48.8817 60.753L47.9903 60.4246L47.9878 60.4313L47.9854 60.4381L48.8817 60.753ZM48.3345 61.4826L48.9116 62.2372L48.9148 62.2348L48.3345 61.4826ZM47.2515 61.95L47.0247 61.0275L47.0211 61.0284L47.2515 61.95ZM43.7517 61.95L43.5249 62.8725L43.5249 62.8725L43.7517 61.95ZM42.6573 61.4826L42.0665 62.2266L42.0785 62.2361L42.0908 62.2452L42.6573 61.4826ZM42.1101 60.753L41.2113 61.0605L41.2162 61.0749L41.2216 61.0892L42.1101 60.753ZM42.1101 54.9618L41.2187 54.6334L41.2162 54.6401L41.2138 54.6469L42.1101 54.9618ZM42.6573 54.2208L42.077 53.4685L42.0665 53.4768L42.6573 54.2208ZM43.7517 53.742L43.5249 52.8195L43.5249 52.8195L43.7517 53.742ZM47.2515 53.742L47.0211 54.6636L47.0247 54.6645L47.2515 53.742ZM48.3345 54.2208L47.7437 54.9648L47.7543 54.973L48.3345 54.2208ZM48.8817 54.9618L47.9829 55.2693L47.9878 55.2837L47.9932 55.298L48.8817 54.9618ZM44.7207 59.7726L44.0725 60.4671L44.0853 60.479L44.0985 60.4905L44.7207 59.7726ZM46.2939 59.7726L46.9161 60.4905L46.9293 60.479L46.9421 60.4671L46.2939 59.7726ZM46.2939 55.9536L45.6457 56.6481L45.6585 56.66L45.6717 56.6715L46.2939 55.9536ZM44.7207 55.9536L45.3429 56.6715L45.3561 56.66L45.3689 56.6481L44.7207 55.9536ZM48.0913 59.7954C48.0913 60.048 48.0531 60.2542 47.9903 60.4246L49.7732 61.0814C49.9232 60.6742 49.9913 60.242 49.9913 59.7954H48.0913ZM47.9854 60.4381C47.955 60.5246 47.8939 60.6227 47.7543 60.7304L48.9148 62.2348C49.3071 61.9321 49.6108 61.5437 49.778 61.0679L47.9854 60.4381ZM47.7575 60.728C47.6398 60.8179 47.4156 60.9313 47.0247 61.0275L47.4784 62.8725C48.0146 62.7406 48.5125 62.5425 48.9116 62.2372L47.7575 60.728ZM47.0211 61.0284C46.668 61.1166 46.1712 61.171 45.5073 61.171V63.071C46.257 63.071 46.923 63.0114 47.4819 62.8716L47.0211 61.0284ZM45.5073 61.171C44.8441 61.171 44.3417 61.1168 43.9786 61.0275L43.5249 62.8725C44.089 63.0112 44.7569 63.071 45.5073 63.071V61.171ZM43.9786 61.0275C43.5879 60.9314 43.3541 60.8167 43.2238 60.72L42.0908 62.2452C42.4926 62.5437 42.9883 62.7406 43.5249 62.8725L43.9786 61.0275ZM43.2481 60.7386C43.1104 60.6293 43.0386 60.5223 42.9986 60.4168L41.2216 61.0892C41.3945 61.5461 41.6874 61.9255 42.0665 62.2266L43.2481 60.7386ZM43.009 60.4455C42.9486 60.2689 42.9119 60.0553 42.9119 59.7954H41.0119C41.0119 60.2347 41.0741 60.6595 41.2113 61.0605L43.009 60.4455ZM42.9119 59.7954V55.908H41.0119V59.7954H42.9119ZM42.9119 55.908C42.9119 55.6475 42.9487 55.4409 43.0064 55.2767L41.2138 54.6469C41.0739 55.0451 41.0119 55.4693 41.0119 55.908H42.9119ZM43.0016 55.2902C43.0434 55.1767 43.1159 55.0697 43.2481 54.9648L42.0665 53.4768C41.6819 53.7823 41.3897 54.1693 41.2187 54.6334L43.0016 55.2902ZM43.2376 54.973C43.3646 54.875 43.5932 54.7593 43.9786 54.6645L43.5249 52.8195C42.983 52.9527 42.4821 53.1562 42.0771 53.4686L43.2376 54.973ZM43.9786 54.6645C44.3417 54.5752 44.8441 54.521 45.5073 54.521V52.621C44.7569 52.621 44.089 52.6808 43.5249 52.8195L43.9786 54.6645ZM45.5073 54.521C46.1712 54.521 46.668 54.5754 47.0211 54.6636L47.4819 52.8204C46.923 52.6806 46.257 52.621 45.5073 52.621V54.521ZM47.0247 54.6645C47.4103 54.7593 47.6292 54.8738 47.7437 54.9648L48.9253 53.4768C48.5231 53.1574 48.02 52.9527 47.4784 52.8195L47.0247 54.6645ZM47.7543 54.973C47.8882 55.0763 47.9504 55.1744 47.9829 55.2693L49.7806 54.6543C49.6155 54.1716 49.3128 53.7757 48.9148 53.4686L47.7543 54.973ZM47.9932 55.298C48.0529 55.4558 48.0913 55.6549 48.0913 55.908H49.9913C49.9913 55.4619 49.9233 55.0302 49.7702 54.6256L47.9932 55.298ZM48.0913 55.908V59.7954H49.9913V55.908H48.0913ZM43.5997 59.385C43.5997 59.8079 43.7717 60.1863 44.0725 60.4671L45.3689 59.0781C45.396 59.1034 45.4331 59.1478 45.4617 59.2124C45.4904 59.2777 45.4997 59.3392 45.4997 59.385H43.5997ZM44.0985 60.4905C44.3465 60.7054 44.6405 60.7822 44.827 60.8173C45.0382 60.8571 45.271 60.8708 45.5073 60.8708V58.9708C45.4232 58.9708 45.3535 58.9682 45.2969 58.9641C45.2397 58.9599 45.2014 58.9544 45.1788 58.9502C45.1546 58.9456 45.1591 58.9444 45.1822 58.9535C45.2034 58.9619 45.2678 58.9896 45.3429 59.0547L44.0985 60.4905ZM45.5073 60.8708C45.7437 60.8708 45.9765 60.8571 46.1877 60.8173C46.3742 60.7822 46.6682 60.7054 46.9161 60.4905L45.6717 59.0547C45.7469 58.9896 45.8113 58.9619 45.8324 58.9535C45.8556 58.9444 45.86 58.9456 45.8359 58.9502C45.8132 58.9544 45.775 58.9599 45.7178 58.9641C45.6612 58.9682 45.5915 58.9708 45.5073 58.9708V60.8708ZM46.9421 60.4671C47.243 60.1863 47.4149 59.8079 47.4149 59.385H45.5149C45.5149 59.3392 45.5242 59.2777 45.553 59.2124C45.5815 59.1478 45.6186 59.1034 45.6457 59.0781L46.9421 60.4671ZM47.4149 59.385V56.3184H45.5149V59.385H47.4149ZM47.4149 56.3184C47.4149 55.8847 47.2277 55.5057 46.9161 55.2357L45.6717 56.6715C45.6407 56.6446 45.5965 56.5957 45.562 56.5221C45.527 56.4474 45.5149 56.3749 45.5149 56.3184H47.4149ZM46.9421 55.2591C46.6948 55.0282 46.3954 54.9424 46.2007 54.9029C45.9838 54.8589 45.7462 54.844 45.5073 54.844V56.744C45.5901 56.744 45.6579 56.7467 45.7124 56.751C45.7676 56.7554 45.8032 56.7609 45.8229 56.7649C45.844 56.7692 45.836 56.7695 45.8096 56.7583C45.7844 56.7476 45.7192 56.7167 45.6457 56.6481L46.9421 55.2591ZM45.5073 54.844C45.2685 54.844 45.0309 54.8589 44.814 54.9029C44.6193 54.9424 44.3199 55.0282 44.0725 55.2591L45.3689 56.6481C45.2955 56.7167 45.2302 56.7476 45.205 56.7583C45.1786 56.7695 45.1707 56.7692 45.1918 56.7649C45.2115 56.7609 45.2471 56.7554 45.3022 56.751C45.3567 56.7467 45.4246 56.744 45.5073 56.744V54.844ZM44.0985 55.2357C43.787 55.5057 43.5997 55.8847 43.5997 56.3184H45.4997C45.4997 56.3749 45.4877 56.4474 45.4527 56.5221C45.4181 56.5957 45.374 56.6446 45.3429 56.6715L44.0985 55.2357ZM43.5997 56.3184V59.385H45.4997V56.3184H43.5997ZM51.3818 61.8588L50.6718 62.4899L50.7089 62.5317L50.7507 62.5688L51.3818 61.8588ZM51.3818 53.8446L50.71 53.1728L50.71 53.1728L51.3818 53.8446ZM53.8328 53.8218L53.288 54.6001L53.3051 54.6121L53.3228 54.6233L53.8328 53.8218ZM54.0608 54.084L54.8925 53.6248L54.8888 53.6182L54.0608 54.084ZM55.0868 55.9422L54.2551 56.4014L54.2564 56.4036L55.0868 55.9422ZM55.178 56.0904L54.418 56.6604L54.4585 56.7144L54.5063 56.7622L55.178 56.0904ZM55.4972 56.0904L54.8255 55.4186L54.7777 55.4664L54.7372 55.5204L55.4972 56.0904ZM55.5998 55.9422L56.4303 56.4036L56.4336 56.3975L55.5998 55.9422ZM56.6144 54.084L55.7863 53.6182L55.7806 53.6287L56.6144 54.084ZM56.831 53.8218L56.321 53.0203L56.3033 53.0315L56.2862 53.0435L56.831 53.8218ZM59.2934 53.8446L58.5834 54.4757L58.6205 54.5175L58.6623 54.5546L59.2934 53.8446ZM59.2934 61.8588L59.9652 62.5305L59.9652 62.5305L59.2934 61.8588ZM56.9108 61.8588L56.2008 62.4899L56.2379 62.5317L56.2797 62.5688L56.9108 61.8588ZM56.8196 57.5268H57.7696L55.9841 57.0746L56.8196 57.5268ZM56.147 58.7694L55.3115 58.3172L55.3074 58.3249L56.147 58.7694ZM55.8962 59.0544L56.3749 59.875L56.3846 59.8693L56.3941 59.8635L55.8962 59.0544ZM54.722 59.0544L54.195 59.8448L54.2322 59.8696L54.2716 59.8908L54.722 59.0544ZM54.4826 58.7694L55.3222 58.3249L55.3181 58.3172L54.4826 58.7694ZM53.81 57.5268L54.6455 57.0746L52.86 57.5268H53.81ZM53.7074 61.8588L54.3792 62.5305L54.3792 62.5305L53.7074 61.8588ZM53.3996 61H51.701V62.9H53.3996V61ZM51.701 61C51.6918 61 51.7209 60.9986 51.7739 61.0137C51.8295 61.0296 51.9206 61.0667 52.0129 61.1488L50.7507 62.5688C51.0693 62.8521 51.4519 62.9 51.701 62.9V61ZM52.0918 61.2277C52.1739 61.32 52.2109 61.4111 52.2268 61.4667C52.242 61.5197 52.2406 61.5488 52.2406 61.5396H50.3406C50.3406 61.7887 50.3885 62.1713 50.6718 62.4899L52.0918 61.2277ZM52.2406 61.5396V54.1524H50.3406V61.5396H52.2406ZM52.2406 54.1524C52.2406 54.1419 52.2423 54.1762 52.2243 54.237C52.2053 54.301 52.1593 54.4106 52.0536 54.5163L50.71 53.1728C50.3826 53.5003 50.3406 53.9174 50.3406 54.1524H52.2406ZM52.0536 54.5163C51.9655 54.6044 51.8717 54.6502 51.8036 54.6721C51.7709 54.6826 51.7448 54.6874 51.7282 54.6897C51.7116 54.692 51.702 54.692 51.701 54.692V52.792C51.4276 52.792 51.0279 52.855 50.71 53.1728L52.0536 54.5163ZM51.701 54.692H53.5364V52.792H51.701V54.692ZM53.5364 54.692C53.5231 54.692 53.4147 54.6887 53.288 54.6001L54.3776 53.0435C54.0989 52.8485 53.7929 52.792 53.5364 52.792V54.692ZM53.3228 54.6233C53.2757 54.5933 53.2478 54.5646 53.2356 54.5506C53.2238 54.537 53.224 54.5341 53.2328 54.5497L54.8888 53.6182C54.7732 53.4127 54.6013 53.1848 54.3428 53.0203L53.3228 54.6233ZM53.2292 54.5432L54.2552 56.4014L55.9185 55.483L54.8925 53.6248L53.2292 54.5432ZM54.2564 56.4036C54.2982 56.4789 54.3544 56.5756 54.418 56.6604L55.938 55.5204C55.9451 55.5299 55.9492 55.536 55.9499 55.5371C55.9508 55.5384 55.9499 55.5371 55.9472 55.5327C55.9414 55.5233 55.9316 55.5066 55.9173 55.4808L54.2564 56.4036ZM54.5063 56.7622C54.7265 56.9824 55.0114 57.086 55.292 57.086V55.186C55.3763 55.186 55.4768 55.2004 55.5821 55.2425C55.6886 55.2851 55.7786 55.3475 55.8497 55.4186L54.5063 56.7622ZM55.292 57.086H55.3946V55.186H55.292V57.086ZM55.3946 57.086C55.672 57.086 56.0182 56.9791 56.2572 56.6604L54.7372 55.5204C54.8215 55.408 54.9353 55.3157 55.0686 55.2565C55.1965 55.1996 55.3129 55.186 55.3946 55.186V57.086ZM56.169 56.7621C56.2932 56.6379 56.3783 56.497 56.4303 56.4036L54.7694 55.4808C54.7612 55.4954 54.7596 55.497 54.7646 55.4898C54.7673 55.4858 54.7732 55.4776 54.7823 55.4663C54.7913 55.4552 54.8056 55.4385 54.8255 55.4186L56.169 56.7621ZM56.4336 56.3975L57.4482 54.5393L55.7806 53.6287L54.766 55.4869L56.4336 56.3975ZM57.4424 54.5497C57.455 54.5274 57.4592 54.5239 57.4523 54.5323C57.4455 54.5405 57.4213 54.5682 57.3758 54.6001L56.2862 53.0435C56.0498 53.209 55.8925 53.4296 55.7864 53.6182L57.4424 54.5497ZM57.341 54.6233C57.2408 54.687 57.1567 54.692 57.1388 54.692V52.792C56.8777 52.792 56.5884 52.8502 56.321 53.0203L57.341 54.6233ZM57.1388 54.692H58.9856V52.792H57.1388V54.692ZM58.9856 54.692C58.9848 54.692 58.9742 54.692 58.9558 54.6894C58.9374 54.6869 58.9078 54.6813 58.8704 54.6689C58.7927 54.643 58.6821 54.5868 58.5834 54.4757L60.0034 53.2135C59.6803 52.8499 59.2467 52.792 58.9856 52.792V54.692ZM58.6623 54.5546C58.5512 54.4559 58.495 54.3453 58.4691 54.2676C58.4567 54.2302 58.4511 54.2006 58.4486 54.1822C58.446 54.1638 58.446 54.1532 58.446 54.1524H60.346C60.346 53.8913 60.2881 53.4577 59.9245 53.1346L58.6623 54.5546ZM58.446 54.1524V61.5396H60.346V54.1524H58.446ZM58.446 61.5396C58.446 61.5386 58.446 61.529 58.4483 61.5124C58.4506 61.4958 58.4554 61.4697 58.4659 61.437C58.4878 61.3689 58.5336 61.275 58.6217 61.187L59.9652 62.5305C60.283 62.2127 60.346 61.813 60.346 61.5396H58.446ZM58.6217 61.187C58.7274 61.0813 58.837 61.0353 58.901 61.0163C58.9618 60.9983 58.9961 61 58.9856 61V62.9C59.2206 62.9 59.6377 62.858 59.9652 62.5305L58.6217 61.187ZM58.9856 61H57.23V62.9H58.9856V61ZM57.23 61C57.2208 61 57.2499 60.9986 57.3029 61.0137C57.3585 61.0296 57.4496 61.0667 57.5419 61.1488L56.2797 62.5688C56.5983 62.8521 56.9809 62.9 57.23 62.9V61ZM57.6208 61.2277C57.7029 61.32 57.7399 61.4111 57.7558 61.4667C57.771 61.5197 57.7696 61.5488 57.7696 61.5396H55.8696C55.8696 61.7887 55.9175 62.1713 56.2008 62.4899L57.6208 61.2277ZM57.7696 61.5396V57.5268H55.8696V61.5396H57.7696ZM55.9841 57.0746L55.3115 58.3172L56.9825 59.2216L57.6551 57.979L55.9841 57.0746ZM55.3074 58.3249C55.298 58.3427 55.3197 58.2937 55.3983 58.2453L56.3941 59.8635C56.6703 59.6935 56.8592 59.4545 56.9866 59.2139L55.3074 58.3249ZM55.4175 58.2338C55.5155 58.1767 55.5783 58.1842 55.5428 58.1842V60.0842C55.7961 60.0842 56.0945 60.0385 56.3749 59.875L55.4175 58.2338ZM55.5428 58.1842H55.0868V60.0842H55.5428V58.1842ZM55.0868 58.1842C55.0557 58.1842 55.0987 58.1783 55.1724 58.2179L54.2716 59.8908C54.5429 60.0369 54.8291 60.0842 55.0868 60.0842V58.1842ZM55.249 58.2639C55.3256 58.3151 55.3404 58.3594 55.3222 58.3249L53.643 59.2139C53.7616 59.4378 53.936 59.6721 54.195 59.8448L55.249 58.2639ZM55.3181 58.3172L54.6455 57.0746L52.9745 57.979L53.6471 59.2216L55.3181 58.3172ZM52.86 57.5268V61.5396H54.76V57.5268H52.86ZM52.86 61.5396C52.86 61.5386 52.86 61.529 52.8623 61.5124C52.8646 61.4958 52.8694 61.4697 52.8799 61.437C52.9018 61.3689 52.9476 61.275 53.0357 61.187L54.3792 62.5305C54.697 62.2127 54.76 61.813 54.76 61.5396H52.86ZM53.0357 61.187C53.1414 61.0813 53.251 61.0353 53.315 61.0163C53.3758 60.9983 53.4101 61 53.3996 61V62.9C53.6346 62.9 54.0517 62.858 54.3792 62.5305L53.0357 61.187ZM61.8542 61.8588L61.1442 62.4899L61.1813 62.5317L61.2231 62.5688L61.8542 61.8588ZM61.8542 53.8446L61.1825 53.1728L61.1825 53.1728L61.8542 53.8446ZM67.7822 54.3576L67.0851 55.003L67.0851 55.003L67.7822 54.3576ZM67.7822 59.0316L67.0851 58.3862L67.0851 58.3862L67.7822 59.0316ZM64.3508 59.6472V58.6972H63.4008V59.6472H64.3508ZM64.2482 61.8588L63.5765 61.187L63.5765 61.187L64.2482 61.8588ZM64.328 55.8738V54.9238H63.378V55.8738H64.328ZM64.328 57.5952H63.378V58.5452H64.328V57.5952ZM65.7872 57.4242L66.6018 57.913L66.6018 57.913L65.7872 57.4242ZM65.7872 56.0448L64.9726 56.5336L64.9726 56.5336L65.7872 56.0448ZM63.9404 61H62.1734V62.9H63.9404V61ZM62.1734 61C62.1642 61 62.1934 60.9986 62.2463 61.0137C62.302 61.0296 62.393 61.0667 62.4854 61.1488L61.2231 62.5688C61.5418 62.8521 61.9243 62.9 62.1734 62.9V61ZM62.5643 61.2277C62.6463 61.32 62.6834 61.4111 62.6993 61.4667C62.7144 61.5197 62.713 61.5488 62.713 61.5396H60.813C60.813 61.7887 60.8609 62.1713 61.1442 62.4899L62.5643 61.2277ZM62.713 61.5396V54.1524H60.813V61.5396H62.713ZM62.713 54.1524C62.713 54.1419 62.7147 54.1762 62.6967 54.237C62.6777 54.301 62.6317 54.4106 62.526 54.5163L61.1825 53.1728C60.855 53.5003 60.813 53.9174 60.813 54.1524H62.713ZM62.526 54.5163C62.438 54.6044 62.3441 54.6502 62.276 54.6721C62.2433 54.6826 62.2172 54.6874 62.2006 54.6897C62.184 54.692 62.1744 54.692 62.1734 54.692V52.792C61.9 52.792 61.5003 52.855 61.1825 53.1728L62.526 54.5163ZM62.1734 54.692H65.6618V52.792H62.1734V54.692ZM65.6618 54.692C66.6355 54.692 66.9881 54.8983 67.0851 55.003L68.4793 53.7122C67.8163 52.9961 66.7553 52.792 65.6618 52.792V54.692ZM67.0851 55.003C67.2736 55.2066 67.4022 55.4968 67.4022 55.965H69.3022C69.3022 55.1108 69.0508 54.3294 68.4793 53.7122L67.0851 55.003ZM67.4022 55.965V57.4242H69.3022V55.965H67.4022ZM67.4022 57.4242C67.4022 57.8924 67.2736 58.1826 67.0851 58.3862L68.4793 59.677C69.0508 59.0598 69.3022 58.2784 69.3022 57.4242H67.4022ZM67.0851 58.3862C66.9881 58.4909 66.6355 58.6972 65.6618 58.6972V60.5972C66.7553 60.5972 67.8163 60.3931 68.4793 59.677L67.0851 58.3862ZM65.6618 58.6972H64.3508V60.5972H65.6618V58.6972ZM63.4008 59.6472V61.5396H65.3008V59.6472H63.4008ZM63.4008 61.5396C63.4008 61.5386 63.4008 61.529 63.4031 61.5124C63.4054 61.4958 63.4102 61.4697 63.4207 61.437C63.4426 61.3689 63.4885 61.275 63.5765 61.187L64.92 62.5305C65.2378 62.2127 65.3008 61.813 65.3008 61.5396H63.4008ZM63.5765 61.187C63.6822 61.0813 63.7918 61.0353 63.8558 61.0163C63.9166 60.9983 63.9509 61 63.9404 61V62.9C64.1755 62.9 64.5925 62.858 64.92 62.5305L63.5765 61.187ZM63.378 55.8738V57.5952H65.278V55.8738H63.378ZM64.328 58.5452H65.354V56.6452H64.328V58.5452ZM65.354 58.5452C65.6812 58.5452 66.2706 58.465 66.6018 57.913L64.9726 56.9354C65.0633 56.7842 65.1904 56.7037 65.2788 56.6688C65.3538 56.6392 65.391 56.6452 65.354 56.6452V58.5452ZM66.6018 57.913C66.7664 57.6387 66.8398 57.3378 66.8398 57.0366H64.9398C64.9398 57.0333 64.9403 57.0195 64.9458 56.9987C64.9514 56.9774 64.9606 56.9554 64.9726 56.9354L66.6018 57.913ZM66.8398 57.0366V56.4324H64.9398V57.0366H66.8398ZM66.8398 56.4324C66.8398 56.1312 66.7664 55.8303 66.6018 55.556L64.9726 56.5336C64.9606 56.5136 64.9514 56.4916 64.9458 56.4703C64.9403 56.4495 64.9398 56.4357 64.9398 56.4324H66.8398ZM66.6018 55.556C66.2706 55.004 65.6812 54.9238 65.354 54.9238V56.8238C65.391 56.8238 65.3538 56.8298 65.2788 56.8002C65.1904 56.7653 65.0633 56.6848 64.9726 56.5336L66.6018 55.556ZM65.354 54.9238H64.328V56.8238H65.354V54.9238ZM73.1958 56.136L72.3277 55.7502L72.3048 55.8016L72.2882 55.8554L73.1958 56.136ZM72.66 57.8688L71.7524 57.5882L71.3719 58.8188H72.66V57.8688ZM74.4498 57.8688V58.8188H75.7379L75.3574 57.5882L74.4498 57.8688ZM73.914 56.136L74.8216 55.8554L74.805 55.8016L74.7821 55.7502L73.914 56.136ZM73.8114 55.9878L73.1396 56.6595L73.1768 56.6968L73.2179 56.7296L73.8114 55.9878ZM73.287 55.9878L72.6935 55.246L72.6524 55.2788L72.6152 55.316L73.287 55.9878ZM72.4434 61.8588L71.7716 61.187L71.7716 61.187L72.4434 61.8588ZM70.1406 61.8588L69.4305 62.4899L69.4677 62.5317L69.5094 62.5688L70.1406 61.8588ZM70.152 57.7434L69.2318 57.5074L69.2289 57.5186L69.2263 57.5298L70.152 57.7434ZM70.494 56.706L71.3807 57.047L71.3811 57.046L70.494 56.706ZM71.4858 54.1182L72.3729 54.4582L72.3774 54.4463L72.3816 54.4344L71.4858 54.1182ZM71.691 53.8332L71.1931 53.0241L71.1784 53.0332L71.164 53.0427L71.691 53.8332ZM75.4872 53.8332L74.9602 54.6236L74.9746 54.6332L74.9893 54.6423L75.4872 53.8332ZM75.7038 54.1182L74.8079 54.4344L74.8122 54.4463L74.8167 54.4582L75.7038 54.1182ZM76.6956 56.706L75.8085 57.046L75.8089 57.047L76.6956 56.706ZM77.0262 57.7434L76.1005 57.957L76.1031 57.9682L76.106 57.9794L77.0262 57.7434ZM77.0376 61.8588L77.7093 62.5305L77.7093 62.5305L77.0376 61.8588ZM74.6664 61.8588L73.9946 62.5305L74.0318 62.5678L74.0729 62.6006L74.6664 61.8588ZM74.5638 59.9436H75.5138V58.9936H74.5638V59.9436ZM72.546 59.9436V58.9936H71.596V59.9436H72.546ZM72.2882 55.8554L71.7524 57.5882L73.5676 58.1494L74.1034 56.4166L72.2882 55.8554ZM72.66 58.8188H74.4498V56.9188H72.66V58.8188ZM75.3574 57.5882L74.8216 55.8554L73.0064 56.4166L73.5422 58.1494L75.3574 57.5882ZM74.7821 55.7502C74.7202 55.6108 74.6085 55.4089 74.4048 55.246L73.2179 56.7296C73.1504 56.6756 73.108 56.6225 73.0845 56.5884C73.0607 56.5541 73.0492 56.5293 73.0459 56.5218L74.7821 55.7502ZM74.4831 55.316C74.2629 55.0958 73.978 54.9922 73.6974 54.9922V56.8922C73.6131 56.8922 73.5126 56.8778 73.4073 56.8356C73.3008 56.7931 73.2107 56.7306 73.1396 56.6595L74.4831 55.316ZM73.6974 54.9922H73.4124V56.8922H73.6974V54.9922ZM73.4124 54.9922C73.136 54.9922 72.8878 55.0905 72.6935 55.246L73.8804 56.7296C73.7621 56.8243 73.5976 56.8922 73.4124 56.8922V54.9922ZM72.6152 55.316C72.4629 55.4684 72.3756 55.6422 72.3277 55.7502L74.0639 56.5218C74.0666 56.5158 74.0627 56.5257 74.0505 56.5455C74.0394 56.5636 74.0105 56.6078 73.9587 56.6596L72.6152 55.316ZM71.596 61.5396C71.596 61.5386 71.596 61.529 71.5983 61.5124C71.6006 61.4958 71.6054 61.4697 71.6159 61.437C71.6378 61.3689 71.6836 61.275 71.7716 61.187L73.1151 62.5305C73.433 62.2127 73.496 61.813 73.496 61.5396H71.596ZM71.7716 61.187C71.8773 61.0813 71.987 61.0353 72.051 61.0163C72.1118 60.9983 72.1461 61 72.1356 61V62.9C72.3706 62.9 72.7877 62.858 73.1151 62.5305L71.7716 61.187ZM72.1356 61H70.4598V62.9H72.1356V61ZM70.4598 61C70.4506 61 70.4797 60.9986 70.5327 61.0137C70.5883 61.0296 70.6794 61.0667 70.7717 61.1488L69.5094 62.5688C69.8281 62.8521 70.2107 62.9 70.4598 62.9V61ZM70.8506 61.2277C70.9327 61.32 70.9697 61.4111 70.9856 61.4667C71.0008 61.5197 70.9994 61.5488 70.9994 61.5396H69.0994C69.0994 61.7887 69.1473 62.1713 69.4305 62.4899L70.8506 61.2277ZM70.9994 61.5396V58.53H69.0994V61.5396H70.9994ZM70.9994 58.53C70.9994 58.3932 71.0204 58.2051 71.0777 57.957L69.2263 57.5298C69.1468 57.8745 69.0994 58.2108 69.0994 58.53H70.9994ZM71.0722 57.9794C71.1364 57.7292 71.2373 57.4199 71.3807 57.047L69.6073 56.365C69.4467 56.7825 69.3196 57.1648 69.2318 57.5074L71.0722 57.9794ZM71.3811 57.046L72.3729 54.4582L70.5987 53.7782L69.6069 56.366L71.3811 57.046ZM72.3816 54.4344C72.3762 54.4498 72.3366 54.5445 72.218 54.6236L71.164 53.0427C70.863 53.2435 70.6866 53.5282 70.5899 53.802L72.3816 54.4344ZM72.1889 54.6423C72.0982 54.6981 72.0376 54.692 72.0672 54.692V52.792C71.7927 52.792 71.4813 52.8467 71.1931 53.0241L72.1889 54.6423ZM72.0672 54.692H75.1338V52.792H72.0672V54.692ZM75.1338 54.692C75.1492 54.692 75.0676 54.6952 74.9602 54.6236L76.0142 53.0428C75.7244 52.8496 75.4072 52.792 75.1338 52.792V54.692ZM74.9893 54.6423C74.936 54.6094 74.8919 54.568 74.8591 54.5249C74.8275 54.4833 74.8132 54.4492 74.8079 54.4344L76.5996 53.802C76.4953 53.5065 76.3012 53.2187 75.9851 53.0241L74.9893 54.6423ZM74.8167 54.4582L75.8085 57.046L77.5827 56.366L76.5909 53.7782L74.8167 54.4582ZM75.8089 57.047C75.9506 57.4155 76.0451 57.717 76.1005 57.957L77.9519 57.5298C77.8704 57.177 77.7445 56.7869 77.5823 56.365L75.8089 57.047ZM76.106 57.9794C76.1685 58.2231 76.1902 58.4034 76.1902 58.53H78.0902C78.0902 58.2006 78.0359 57.8565 77.9464 57.5074L76.106 57.9794ZM76.1902 58.53V61.5396H78.0902V58.53H76.1902ZM76.1902 61.5396C76.1902 61.5386 76.1902 61.529 76.1925 61.5124C76.1948 61.4958 76.1996 61.4697 76.2101 61.437C76.232 61.3689 76.2778 61.275 76.3658 61.187L77.7093 62.5305C78.0272 62.2127 78.0902 61.813 78.0902 61.5396H76.1902ZM76.3658 61.187C76.4715 61.0813 76.5812 61.0353 76.6452 61.0163C76.706 60.9983 76.7403 61 76.7298 61V62.9C76.9648 62.9 77.3819 62.858 77.7093 62.5305L76.3658 61.187ZM76.7298 61H75.0084V62.9H76.7298V61ZM75.0084 61C74.9926 61 75.0117 60.9981 75.0537 61.0093C75.0974 61.0209 75.1757 61.0496 75.2598 61.117L74.0729 62.6006C74.389 62.8535 74.7549 62.9 75.0084 62.9V61ZM75.3381 61.187C75.4261 61.275 75.472 61.3689 75.4939 61.437C75.5044 61.4697 75.5092 61.4958 75.5115 61.5124C75.5138 61.529 75.5138 61.5386 75.5138 61.5396H73.6138C73.6138 61.813 73.6768 62.2127 73.9946 62.5305L75.3381 61.187ZM75.5138 61.5396V59.9436H73.6138V61.5396H75.5138ZM74.5638 58.9936H72.546V60.8936H74.5638V58.9936ZM71.596 59.9436V61.5396H73.496V59.9436H71.596ZM79.4369 61.8588L78.7269 62.4899L78.764 62.5317L78.8058 62.5688L79.4369 61.8588ZM79.4369 53.8446L78.7652 53.1728L78.7652 53.1728L79.4369 53.8446ZM81.3065 53.8104L80.9084 54.673L80.9203 54.6784L80.9323 54.6836L81.3065 53.8104ZM81.6143 54.0498L80.8964 54.672L80.899 54.6749L81.6143 54.0498ZM83.8259 56.5806L83.1106 57.2057L84.7759 59.1114V56.5806H83.8259ZM83.9171 53.8446L84.5889 54.5163L83.9171 53.8446ZM86.2541 53.8446L85.5441 54.4757L85.5812 54.5175L85.623 54.5546L86.2541 53.8446ZM86.2541 61.8588L85.5824 61.187L85.5824 61.187L86.2541 61.8588ZM83.9171 61.8588L83.2071 62.4899L83.2442 62.5317L83.286 62.5688L83.9171 61.8588ZM83.8259 60.1374H84.7759V59.7958L84.5583 59.5324L83.8259 60.1374ZM81.8765 57.7776L82.6089 57.1726L80.9265 55.136V57.7776H81.8765ZM81.7739 61.8588L81.1022 61.187L81.1022 61.187L81.7739 61.8588ZM81.4661 61H79.7561V62.9H81.4661V61ZM79.7561 61C79.7469 61 79.7761 60.9986 79.829 61.0137C79.8847 61.0296 79.9758 61.0667 80.0681 61.1488L78.8058 62.5688C79.1245 62.8521 79.507 62.9 79.7561 62.9V61ZM80.147 61.2277C80.229 61.32 80.2661 61.4111 80.282 61.4667C80.2971 61.5197 80.2957 61.5488 80.2957 61.5396H78.3957C78.3957 61.7887 78.4436 62.1713 78.7269 62.4899L80.147 61.2277ZM80.2957 61.5396V54.1524H78.3957V61.5396H80.2957ZM80.2957 54.1524C80.2957 54.1419 80.2974 54.1762 80.2794 54.237C80.2604 54.301 80.2144 54.4106 80.1087 54.5163L78.7652 53.1728C78.4378 53.5003 78.3957 53.9174 78.3957 54.1524H80.2957ZM80.1087 54.5163C80.0207 54.6044 79.9268 54.6502 79.8587 54.6721C79.826 54.6826 79.8 54.6874 79.7833 54.6897C79.7667 54.692 79.7571 54.692 79.7561 54.692V52.792C79.4827 52.792 79.0831 52.855 78.7652 53.1728L80.1087 54.5163ZM79.7561 54.692H80.9417V52.792H79.7561V54.692ZM80.9417 54.692C80.9647 54.692 80.9717 54.6939 80.9662 54.6928C80.9603 54.6917 80.9391 54.6871 80.9084 54.673L81.7046 52.9478C81.4473 52.829 81.1808 52.792 80.9417 52.792V54.692ZM80.9323 54.6836C80.9024 54.6707 80.8851 54.6583 80.88 54.6543C80.8753 54.6507 80.8813 54.6546 80.8964 54.672L82.3322 53.4276C82.1668 53.2367 81.953 53.0539 81.6808 52.9372L80.9323 54.6836ZM80.899 54.6749L83.1106 57.2057L84.5413 55.9555L82.3297 53.4247L80.899 54.6749ZM84.7759 56.5806V54.1524H82.8759V56.5806H84.7759ZM84.7759 54.1524C84.7759 54.1419 84.7776 54.1762 84.7596 54.237C84.7406 54.301 84.6946 54.4106 84.5889 54.5163L83.2454 53.1728C82.918 53.5003 82.8759 53.9174 82.8759 54.1524H84.7759ZM84.5889 54.5163C84.5009 54.6044 84.407 54.6502 84.3389 54.6721C84.3062 54.6826 84.2802 54.6874 84.2635 54.6897C84.2469 54.692 84.2373 54.692 84.2363 54.692V52.792C83.9629 52.792 83.5633 52.855 83.2454 53.1728L84.5889 54.5163ZM84.2363 54.692H85.9463V52.792H84.2363V54.692ZM85.9463 54.692C85.9455 54.692 85.9349 54.692 85.9165 54.6894C85.8981 54.6869 85.8685 54.6813 85.8312 54.6689C85.7535 54.643 85.6428 54.5868 85.5441 54.4757L86.9642 53.2135C86.641 52.8499 86.2075 52.792 85.9463 52.792V54.692ZM85.623 54.5546C85.5119 54.4559 85.4557 54.3453 85.4298 54.2676C85.4174 54.2302 85.4118 54.2006 85.4093 54.1822C85.4068 54.1638 85.4067 54.1532 85.4067 54.1524H87.3067C87.3067 53.8913 87.2488 53.4577 86.8853 53.1346L85.623 54.5546ZM85.4067 54.1524V61.5396H87.3067V54.1524H85.4067ZM85.4067 61.5396C85.4067 61.5386 85.4068 61.529 85.409 61.5124C85.4113 61.4958 85.4161 61.4697 85.4267 61.437C85.4485 61.3689 85.4944 61.275 85.5824 61.187L86.9259 62.5305C87.2438 62.2127 87.3067 61.813 87.3067 61.5396H85.4067ZM85.5824 61.187C85.6881 61.0813 85.7978 61.0353 85.8617 61.0163C85.9225 60.9983 85.9568 61 85.9463 61V62.9C86.1814 62.9 86.5985 62.858 86.9259 62.5305L85.5824 61.187ZM85.9463 61H84.2363V62.9H85.9463V61ZM84.2363 61C84.2271 61 84.2563 60.9986 84.3092 61.0137C84.3649 61.0296 84.456 61.0667 84.5483 61.1488L83.286 62.5688C83.6047 62.8521 83.9872 62.9 84.2363 62.9V61ZM84.6272 61.2277C84.7092 61.32 84.7463 61.4111 84.7622 61.4667C84.7773 61.5197 84.7759 61.5488 84.7759 61.5396H82.8759C82.8759 61.7887 82.9238 62.1713 83.2071 62.4899L84.6272 61.2277ZM84.7759 61.5396V60.1374H82.8759V61.5396H84.7759ZM84.5583 59.5324L82.6089 57.1726L81.1441 58.3826L83.0935 60.7424L84.5583 59.5324ZM80.9265 57.7776V61.5396H82.8265V57.7776H80.9265ZM80.9265 61.5396C80.9265 61.5386 80.9266 61.529 80.9288 61.5124C80.9311 61.4958 80.9359 61.4697 80.9465 61.437C80.9683 61.3689 81.0142 61.275 81.1022 61.187L82.4457 62.5305C82.7636 62.2127 82.8265 61.813 82.8265 61.5396H80.9265ZM81.1022 61.187C81.2079 61.0813 81.3176 61.0353 81.3815 61.0163C81.4423 60.9983 81.4766 61 81.4661 61V62.9C81.7012 62.9 82.1183 62.858 82.4457 62.5305L81.1022 61.187ZM90.7221 61.8588L90.0121 62.4899L90.0492 62.5317L90.091 62.5688L90.7221 61.8588ZM90.6309 60.0804H91.5809V59.765L91.3923 59.5122L90.6309 60.0804ZM88.8867 57.7434L88.1238 58.3095L88.1254 58.3116L88.8867 57.7434ZM88.5333 57.1278L87.6245 57.4044L87.6299 57.4223L87.6361 57.4399L88.5333 57.1278ZM88.5447 53.8446L87.873 53.1728L87.873 53.1728L88.5447 53.8446ZM90.9273 53.8446L90.2173 54.4757L90.2544 54.5175L90.2962 54.5546L90.9273 53.8446ZM91.0413 56.2614L90.0952 56.3474L90.0952 56.3474L91.0413 56.2614ZM91.1325 56.5008L91.9331 55.9893L91.9223 55.9724L91.9108 55.956L91.1325 56.5008ZM91.6569 57.3216L92.4874 56.8602L92.4732 56.8347L92.4575 56.8101L91.6569 57.3216ZM91.7709 57.4698L91.1775 58.2116L91.2097 58.2374L91.244 58.2602L91.7709 57.4698ZM92.1927 57.4698L91.6658 56.6794L91.6315 56.7022L91.5993 56.728L92.1927 57.4698ZM92.3181 57.3216L91.5176 56.8101L91.5019 56.8347L91.4877 56.8602L92.3181 57.3216ZM92.8425 56.5008L92.0643 55.956L92.0528 55.9724L92.042 55.9893L92.8425 56.5008ZM92.9337 56.2614L93.8798 56.3474L93.8798 56.3474L92.9337 56.2614ZM93.0363 53.8446L93.7081 54.5163L93.0363 53.8446ZM95.3619 53.8446L94.6519 54.4757L94.689 54.5175L94.7308 54.5546L95.3619 53.8446ZM95.3733 57.1278L94.4761 56.8157L94.4761 56.8157L95.3733 57.1278ZM95.0313 57.7434L95.7958 58.3074L95.801 58.3004L95.8061 58.2932L95.0313 57.7434ZM93.2985 60.0918L92.5341 59.5278L92.3485 59.7792V60.0918H93.2985ZM93.1959 61.8588L93.8677 62.5305L93.8677 62.5305L93.1959 61.8588ZM92.8881 61H91.0413V62.9H92.8881V61ZM91.0413 61C91.0321 61 91.0613 60.9986 91.1142 61.0137C91.1699 61.0296 91.261 61.0667 91.3533 61.1488L90.091 62.5688C90.4097 62.8521 90.7922 62.9 91.0413 62.9V61ZM91.4322 61.2277C91.5142 61.32 91.5513 61.4111 91.5672 61.4667C91.5823 61.5197 91.5809 61.5488 91.5809 61.5396H89.6809C89.6809 61.7887 89.7288 62.1713 90.0121 62.4899L91.4322 61.2277ZM91.5809 61.5396V60.0804H89.6809V61.5396H91.5809ZM91.3923 59.5122L89.6481 57.1752L88.1254 58.3116L89.8696 60.6486L91.3923 59.5122ZM89.6497 57.1773C89.5029 56.9795 89.4468 56.8624 89.4306 56.8157L87.6361 57.4399C87.7414 57.7428 87.921 58.0361 88.1238 58.3095L89.6497 57.1773ZM89.4422 56.8512C89.4309 56.8142 89.4035 56.6661 89.4035 56.3412H87.5035C87.5035 56.7155 87.5293 57.0918 87.6245 57.4044L89.4422 56.8512ZM89.4035 56.3412V54.1524H87.5035V56.3412H89.4035ZM89.4035 54.1524C89.4035 54.1419 89.4052 54.1762 89.3872 54.237C89.3682 54.301 89.3222 54.4106 89.2165 54.5163L87.873 53.1728C87.5456 53.5003 87.5035 53.9174 87.5035 54.1524H89.4035ZM89.2165 54.5163C89.1285 54.6044 89.0346 54.6502 88.9665 54.6721C88.9338 54.6826 88.9078 54.6874 88.8911 54.6897C88.8745 54.692 88.8649 54.692 88.8639 54.692V52.792C88.5905 52.792 88.1909 52.855 87.873 53.1728L89.2165 54.5163ZM88.8639 54.692H90.6195V52.792H88.8639V54.692ZM90.6195 54.692C90.6187 54.692 90.6081 54.692 90.5897 54.6894C90.5713 54.6869 90.5417 54.6813 90.5044 54.6689C90.4267 54.643 90.316 54.5868 90.2173 54.4757L91.6374 53.2135C91.3142 52.8499 90.8807 52.792 90.6195 52.792V54.692ZM90.2962 54.5546C90.1851 54.4559 90.1289 54.3453 90.103 54.2676C90.0906 54.2302 90.085 54.2006 90.0825 54.1822C90.0799 54.1638 90.0799 54.1532 90.0799 54.1524H91.9799C91.9799 53.8913 91.922 53.4577 91.5585 53.1346L90.2962 54.5546ZM90.0799 54.1524V56.022H91.9799V54.1524H90.0799ZM90.0799 56.022C90.0799 56.1295 90.0853 56.2381 90.0952 56.3474L91.9874 56.1754C91.9822 56.1175 91.9799 56.0665 91.9799 56.022H90.0799ZM90.0952 56.3474C90.1194 56.6129 90.2163 56.8485 90.3543 57.0456L91.9108 55.956C91.9423 56.0011 91.9785 56.0771 91.9874 56.1754L90.0952 56.3474ZM90.332 57.0123L90.8564 57.8331L92.4575 56.8101L91.9331 55.9893L90.332 57.0123ZM90.8265 57.783C90.8924 57.9016 91.0021 58.0714 91.1775 58.2116L92.3644 56.728C92.4188 56.7715 92.4517 56.811 92.4669 56.8307C92.4828 56.8513 92.489 56.8632 92.4874 56.8602L90.8265 57.783ZM91.244 58.2602C91.4625 58.4059 91.7035 58.4654 91.9305 58.4654V56.5654C92.036 56.5654 92.1706 56.5945 92.2979 56.6793L91.244 58.2602ZM91.9305 58.4654H92.0445V56.5654H91.9305V58.4654ZM92.0445 58.4654C92.266 58.4654 92.5413 58.4076 92.7862 58.2116L91.5993 56.728C91.7682 56.5928 91.9447 56.5654 92.0445 56.5654V58.4654ZM92.7197 58.2602C92.9334 58.1178 93.0665 57.9308 93.1486 57.783L91.4877 56.8602C91.4938 56.8492 91.5432 56.761 91.6658 56.6794L92.7197 58.2602ZM93.1187 57.8331L93.6431 57.0123L92.042 55.9893L91.5176 56.8101L93.1187 57.8331ZM93.6208 57.0456C93.7587 56.8485 93.8557 56.6129 93.8798 56.3474L91.9876 56.1754C91.9966 56.0771 92.0327 56.0011 92.0643 55.956L93.6208 57.0456ZM93.8798 56.3474C93.8898 56.2381 93.8951 56.1295 93.8951 56.022H91.9951C91.9951 56.0665 91.9929 56.1175 91.9876 56.1754L93.8798 56.3474ZM93.8951 56.022V54.1524H91.9951V56.022H93.8951ZM93.8951 54.1524C93.8951 54.1419 93.8968 54.1762 93.8788 54.237C93.8598 54.301 93.8138 54.4106 93.7081 54.5163L92.3646 53.1728C92.0372 53.5003 91.9951 53.9174 91.9951 54.1524H93.8951ZM93.7081 54.5163C93.6201 54.6044 93.5262 54.6502 93.4581 54.6721C93.4254 54.6826 93.3994 54.6874 93.3827 54.6897C93.3661 54.692 93.3565 54.692 93.3555 54.692V52.792C93.0821 52.792 92.6825 52.855 92.3646 53.1728L93.7081 54.5163ZM93.3555 54.692H95.0541V52.792H93.3555V54.692ZM95.0541 54.692C95.0533 54.692 95.0427 54.692 95.0243 54.6894C95.0059 54.6869 94.9763 54.6813 94.939 54.6689C94.8613 54.643 94.7506 54.5868 94.6519 54.4757L96.072 53.2135C95.7488 52.8499 95.3153 52.792 95.0541 52.792V54.692ZM94.7308 54.5546C94.6197 54.4559 94.5635 54.3453 94.5376 54.2676C94.5252 54.2302 94.5196 54.2006 94.5171 54.1822C94.5145 54.1638 94.5145 54.1532 94.5145 54.1524H96.4145C96.4145 53.8913 96.3566 53.4577 95.9931 53.1346L94.7308 54.5546ZM94.5145 54.1524V56.3412H96.4145V54.1524H94.5145ZM94.5145 56.3412C94.5145 56.4904 94.5079 56.6053 94.4981 56.6906C94.4932 56.7327 94.4879 56.7641 94.4833 56.7862C94.4786 56.8087 94.4754 56.8175 94.4761 56.8157L96.2706 57.4399C96.3849 57.1114 96.4145 56.7201 96.4145 56.3412H94.5145ZM94.4761 56.8157C94.4563 56.8724 94.3975 56.995 94.2566 57.1936L95.8061 58.2932C95.9995 58.0206 96.1687 57.7328 96.2706 57.4399L94.4761 56.8157ZM94.2669 57.1794L92.5341 59.5278L94.063 60.6558L95.7958 58.3074L94.2669 57.1794ZM92.3485 60.0918V61.5396H94.2485V60.0918H92.3485ZM92.3485 61.5396C92.3485 61.5386 92.3486 61.529 92.3508 61.5124C92.3531 61.4958 92.3579 61.4697 92.3685 61.437C92.3903 61.3689 92.4362 61.275 92.5242 61.187L93.8677 62.5305C94.1856 62.2127 94.2485 61.813 94.2485 61.5396H92.3485ZM92.5242 61.187C92.6299 61.0813 92.7395 61.0353 92.8035 61.0163C92.8643 60.9983 92.8986 61 92.8881 61V62.9C93.1232 62.9 93.5403 62.858 93.8677 62.5305L92.5242 61.187Z" fill="#FF4F5A"/>
</svg>
